# xmcd
#
# Track frame offsets: 
#        182
#        12632
#        29132
#        41957
#        55382
#        68807
#        80057
#        97157
#        108182
#        124082
#        139007
#        149057
#
# Disc length: 2123 seconds
#
# Revision: 2
# Processed by: cddbd v1.4PL0 Copyright (c) Steve Scherf et al.
# Submitted via: ExactAudioCopy v0.90b2
#
DISCID=be08490c
DTITLE=The Statler Brothers - Sing The Classics - Disc 1
DYEAR=1900
DGENRE=Country
TTITLE0=Memories Are Made Of This
TTITLE1=The Great Pretender
TTITLE2=Gone
TTITLE3=Naughty Lady Of Shady Lane
TTITLE4=She Thinks I Still Care
TTITLE5=I'll Go To My Grave Loving You
TTITLE6=Moments To Remember
TTITLE7=Chattanoogie Shoe Shine Boy
TTITLE8=Making Believe
TTITLE9=Tom Dooley
TTITLE10=Love Letters In The Sand
TTITLE11=Hello Mary Lou (Goodbye Heart)
EXTD=
EXTT0=
EXTT1=
EXTT2=
EXTT3=
EXTT4=
EXTT5=
EXTT6=
EXTT7=
EXTT8=
EXTT9=
EXTT10=
EXTT11=
PLAYORDER=
